<?xml version="1.0" encoding="UTF-8" standalone="no"?>
<!-- Created with Inkscape (http://www.inkscape.org/) -->

<svg
   xmlns:dc="http://purl.org/dc/elements/1.1/"
   xmlns:cc="http://creativecommons.org/ns#"
   xmlns:rdf="http://www.w3.org/1999/02/22-rdf-syntax-ns#"
   xmlns:svg="http://www.w3.org/2000/svg"
   xmlns="http://www.w3.org/2000/svg"
   xmlns:sodipodi="http://sodipodi.sourceforge.net/DTD/sodipodi-0.dtd"
   xmlns:inkscape="http://www.inkscape.org/namespaces/inkscape"
   width="129.79417mm"
   height="18.449957mm"
   viewBox="0 0 459.90062 65.373863"
   id="svg4805"
   version="1.1"
   inkscape:version="0.91 r13725"
   sodipodi:docname="logo_blanco.svg">
  <defs
     id="defs4807">
    <clipPath
       clipPathUnits="userSpaceOnUse"
       id="clipPath300">
      <path
         d="m 383.962,146.581 c -5.724,-5.384 -2.134,-14.444 -2.134,-14.444 l 0,0 c 17.005,5.3 17.264,21.282 17.264,21.282 l 0,0 c -4.788,-1.026 -9.405,-1.453 -15.13,-6.838"
         id="path302"
         inkscape:connector-curvature="0" />
    </clipPath>
    <clipPath
       clipPathUnits="userSpaceOnUse"
       id="clipPath288">
      <path
         d="M 0,314 850,314 850,0 0,0 0,314 Z"
         id="path290"
         inkscape:connector-curvature="0" />
    </clipPath>
    <clipPath
       clipPathUnits="userSpaceOnUse"
       id="clipPath276">
      <path
         d="m 371.741,132.137 c 0,0 3.59,9.06 -2.136,14.444 l 0,0 c -5.728,5.385 -10.34,5.812 -15.129,6.838 l 0,0 c 0,0 0.255,-15.982 17.265,-21.282"
         id="path278"
         inkscape:connector-curvature="0" />
    </clipPath>
    <clipPath
       clipPathUnits="userSpaceOnUse"
       id="clipPath240">
      <path
         d="M 0,314 850,314 850,0 0,0 0,314 Z"
         id="path242"
         inkscape:connector-curvature="0" />
    </clipPath>
    <clipPath
       clipPathUnits="userSpaceOnUse"
       id="clipPath228">
      <path
         d="m 391.533,162.382 c -0.773,-0.746 -3.544,-4.047 -3.441,-5.888 l 0,0 c 0.111,-1.836 1.205,-2.582 2.403,-2.715 l 0,0 c 1.197,-0.134 5.379,1.197 6.845,1.891 l 0,0 c 1.468,0.694 2.185,1.384 2.053,1.839 l 0,0 c -0.134,0.455 -1.785,-0.081 -2.507,-0.478 l 0,0 c -0.715,-0.4 -3.807,-1.173 -5.169,0.158 l 0,0 c 0,0 -1.251,1.651 0,3.331 l 0,0 c 1.257,1.676 2.828,2.797 3.175,3.062 l 0,0 c 0.345,0.267 0.424,0.562 0.103,0.878 l 0,0 c -0.028,0.028 -0.072,0.041 -0.129,0.041 l 0,0 c -0.592,0 -2.627,-1.435 -3.333,-2.119"
         id="path230"
         inkscape:connector-curvature="0" />
    </clipPath>
    <clipPath
       clipPathUnits="userSpaceOnUse"
       id="clipPath216">
      <path
         d="M 0,314 850,314 850,0 0,0 0,314 Z"
         id="path218"
         inkscape:connector-curvature="0" />
    </clipPath>
    <clipPath
       clipPathUnits="userSpaceOnUse"
       id="clipPath204">
      <path
         d="m 383.437,170.894 c -0.538,-0.93 -2.299,-4.864 -1.691,-6.605 l 0,0 c 0.606,-1.737 1.861,-2.155 3.053,-1.955 l 0,0 c 1.187,0.201 4.845,2.627 6.063,3.698 l 0,0 c 1.22,1.067 1.723,1.932 1.469,2.327 l 0,0 c -0.253,0.403 -1.695,-0.565 -2.276,-1.145 l 0,0 c -0.582,-0.583 -3.343,-2.173 -5.013,-1.266 l 0,0 c 0,0 -1.657,1.246 -0.914,3.204 l 0,0 c 0.744,1.958 1.946,3.464 2.205,3.814 l 0,0 c 0.262,0.351 0.26,0.655 -0.134,0.874 l 0,0 c -0.018,0.011 -0.04,0.016 -0.064,0.016 l 0,0 c -0.5,0 -2.185,-2.076 -2.698,-2.962"
         id="path206"
         inkscape:connector-curvature="0" />
    </clipPath>
    <clipPath
       clipPathUnits="userSpaceOnUse"
       id="clipPath192">
      <path
         d="M 0,314 850,314 850,0 0,0 0,314 Z"
         id="path194"
         inkscape:connector-curvature="0" />
    </clipPath>
    <clipPath
       clipPathUnits="userSpaceOnUse"
       id="clipPath180">
      <path
         d="m 372.241,176.822 c -0.445,-0.071 -0.53,-2.956 -0.394,-4.018 l 0,0 c 0.141,-1.068 1.143,-5.263 2.683,-6.272 l 0,0 c 1.542,-1.009 2.787,-0.577 3.609,0.307 l 0,0 c 0.82,0.885 2.245,5.035 2.558,6.625 l 0,0 c 0.323,1.589 0.193,2.582 -0.248,2.743 l 0,0 c -0.445,0.162 -1.001,-1.481 -1.111,-2.296 l 0,0 c -0.107,-0.815 -1.329,-3.757 -3.208,-4.055 l 0,0 c 0,0 -2.074,-0.022 -2.673,1.983 l 0,0 c -0.601,2.006 -0.561,3.936 -0.57,4.371 l 0,0 c -0.009,0.392 -0.159,0.622 -0.511,0.622 l 0,0 c -0.042,0 -0.087,-0.003 -0.135,-0.01"
         id="path182"
         inkscape:connector-curvature="0" />
    </clipPath>
    <clipPath
       clipPathUnits="userSpaceOnUse"
       id="clipPath168">
      <path
         d="M 0,314 850,314 850,0 0,0 0,314 Z"
         id="path170"
         inkscape:connector-curvature="0" />
    </clipPath>
    <clipPath
       clipPathUnits="userSpaceOnUse"
       id="clipPath156">
      <path
         d="m 367.073,173.84 c -0.397,-0.219 -0.4,-0.523 -0.143,-0.874 l 0,0 c 0.259,-0.35 1.465,-1.856 2.21,-3.814 l 0,0 c 0.743,-1.958 -0.916,-3.204 -0.916,-3.204 l 0,0 c -1.67,-0.907 -4.431,0.683 -5.013,1.266 l 0,0 c -0.583,0.58 -2.023,1.548 -2.277,1.145 l 0,0 c -0.25,-0.395 0.25,-1.26 1.469,-2.327 l 0,0 c 1.22,-1.071 4.877,-3.497 6.067,-3.698 l 0,0 c 1.188,-0.2 2.444,0.218 3.048,1.955 l 0,0 c 0.609,1.741 -1.152,5.675 -1.686,6.605 l 0,0 c -0.515,0.886 -2.199,2.962 -2.695,2.962 l 0,0 c -0.024,0 -0.046,-0.005 -0.064,-0.016"
         id="path158"
         inkscape:connector-curvature="0" />
    </clipPath>
    <clipPath
       clipPathUnits="userSpaceOnUse"
       id="clipPath144">
      <path
         d="M 0,314 850,314 850,0 0,0 0,314 Z"
         id="path146"
         inkscape:connector-curvature="0" />
    </clipPath>
    <clipPath
       clipPathUnits="userSpaceOnUse"
       id="clipPath132">
      <path
         d="m 358.879,164.46 c -0.317,-0.316 -0.239,-0.611 0.11,-0.878 l 0,0 c 0.346,-0.265 1.916,-1.386 3.168,-3.062 l 0,0 c 1.252,-1.68 0,-3.331 0,-3.331 l 0,0 c -1.36,-1.331 -4.45,-0.558 -5.167,-0.158 l 0,0 c -0.72,0.397 -2.371,0.933 -2.503,0.478 l 0,0 c -0.134,-0.455 0.585,-1.145 2.052,-1.839 l 0,0 c 1.462,-0.694 5.647,-2.025 6.845,-1.891 l 0,0 c 1.198,0.133 2.29,0.879 2.398,2.715 l 0,0 c 0.106,1.841 -2.665,5.142 -3.438,5.888 l 0,0 c -0.703,0.684 -2.741,2.119 -3.336,2.119 l 0,0 c -0.057,0 -0.1,-0.013 -0.129,-0.041"
         id="path134"
         inkscape:connector-curvature="0" />
    </clipPath>
    <clipPath
       clipPathUnits="userSpaceOnUse"
       id="clipPath120">
      <path
         d="M 0,314 850,314 850,0 0,0 0,314 Z"
         id="path122"
         inkscape:connector-curvature="0" />
    </clipPath>
  </defs>
  <sodipodi:namedview
     id="base"
     pagecolor="#ffffff"
     bordercolor="#666666"
     borderopacity="1.0"
     inkscape:pageopacity="0.0"
     inkscape:pageshadow="2"
     inkscape:zoom="0.35"
     inkscape:cx="216.37888"
     inkscape:cy="-178.74163"
     inkscape:document-units="px"
     inkscape:current-layer="layer1"
     showgrid="false"
     fit-margin-top="0"
     fit-margin-left="0"
     fit-margin-right="0"
     fit-margin-bottom="0"
     inkscape:window-width="1920"
     inkscape:window-height="1016"
     inkscape:window-x="0"
     inkscape:window-y="27"
     inkscape:window-maximized="1" />
  <metadata
     id="metadata4810">
    <rdf:RDF>
      <cc:Work
         rdf:about="">
        <dc:format>image/svg+xml</dc:format>
        <dc:type
           rdf:resource="http://purl.org/dc/dcmitype/StillImage" />
        <dc:title></dc:title>
      </cc:Work>
    </rdf:RDF>
  </metadata>
  <g
     inkscape:label="Layer 1"
     inkscape:groupmode="layer"
     id="layer1"
     transform="translate(-158.62112,-288.24671)">
    <g
       transform="matrix(1.25,0,0,-1.25,-278.76601,513.91683)"
       id="g116">
      <g
         id="g118"
         clip-path="url(#clipPath120)">
        <g
           id="g124"
           transform="translate(362.1577,157.1895)">
          <path
             d="m 0,0 c 0,0 1.251,1.65 0,3.331 -1.252,1.676 -2.823,2.796 -3.168,3.062 -0.35,0.266 -0.428,0.561 -0.11,0.878 0.321,0.323 2.694,-1.33 3.465,-2.079 C 0.959,4.447 3.73,1.146 3.624,-0.695 3.517,-2.531 2.424,-3.277 1.227,-3.41 0.028,-3.544 -4.157,-2.213 -5.618,-1.52 -7.086,-0.825 -7.805,-0.135 -7.67,0.319 -7.539,0.774 -5.888,0.238 -5.168,-0.158 -4.451,-0.559 -1.36,-1.331 0,0"
             style="fill:#ffffff;fill-opacity:1;fill-rule:nonzero;stroke:none"
             id="path126"
             inkscape:connector-curvature="0" />
        </g>
      </g>
    </g>
    <g
       transform="matrix(1.25,0,0,-1.25,-278.76601,513.91683)"
       id="g128">
      <g
         id="g130"
         clip-path="url(#clipPath132)">
        <g
           id="g136"
           transform="translate(348.7983,158.8086)">
          <path
             d="M 0,0 11.741,-10.913 22.645,0.81 10.901,11.726 0,0 Z"
             style="fill:#ffffff;fill-opacity:1;fill-rule:nonzero;stroke:none"
             id="path138"
             inkscape:connector-curvature="0" />
        </g>
      </g>
    </g>
    <g
       transform="matrix(1.25,0,0,-1.25,-278.76601,513.91683)"
       id="g140">
      <g
         id="g142"
         clip-path="url(#clipPath144)">
        <g
           id="g148"
           transform="translate(368.2241,165.9482)">
          <path
             d="M 0,0 C 0,0 1.659,1.246 0.917,3.204 0.171,5.161 -1.035,6.668 -1.294,7.019 -1.552,7.369 -1.548,7.673 -1.151,7.893 -0.758,8.112 1.067,5.875 1.607,4.945 2.142,4.016 3.902,0.082 3.294,-1.659 2.69,-3.396 1.434,-3.814 0.246,-3.614 c -1.19,0.201 -4.847,2.627 -6.067,3.698 -1.22,1.067 -1.72,1.932 -1.469,2.327 0.254,0.402 1.694,-0.565 2.277,-1.145 C -4.432,0.684 -1.67,-0.907 0,0"
             style="fill:#ffffff;fill-opacity:1;fill-rule:nonzero;stroke:none"
             id="path150"
             inkscape:connector-curvature="0" />
        </g>
      </g>
    </g>
    <g
       transform="matrix(1.25,0,0,-1.25,-278.76601,513.91683)"
       id="g152">
      <g
         id="g154"
         clip-path="url(#clipPath156)">
        <g
           id="g160"
           transform="translate(355.0703,170.1074)">
          <path
             d="M 0,0 9.406,-13.36 22.671,-4.021 13.263,9.339 0,0 Z"
             style="fill:#ffffff;fill-opacity:1;fill-rule:nonzero;stroke:none"
             id="path162"
             inkscape:connector-curvature="0" />
        </g>
      </g>
    </g>
    <g
       transform="matrix(1.25,0,0,-1.25,-278.76601,513.91683)"
       id="g164">
      <g
         id="g166"
         clip-path="url(#clipPath168)">
        <g
           id="g172"
           transform="translate(376.1294,169.8564)">
          <path
             d="M 0,0 C 0,0 -2.073,-0.022 -2.672,1.982 -3.273,3.988 -3.233,5.919 -3.243,6.354 -3.252,6.792 -3.439,7.028 -3.889,6.966 -4.333,6.895 -4.418,4.009 -4.283,2.947 -4.142,1.88 -3.14,-2.315 -1.599,-3.324 -0.058,-4.334 1.187,-3.901 2.01,-3.018 2.83,-2.133 4.255,2.018 4.568,3.607 4.891,5.196 4.76,6.189 4.319,6.351 3.875,6.513 3.318,4.869 3.209,4.055 3.102,3.239 1.879,0.298 0,0"
             style="fill:#ffffff;fill-opacity:1;fill-rule:nonzero;stroke:none"
             id="path174"
             inkscape:connector-curvature="0" />
        </g>
      </g>
    </g>
    <g
       transform="matrix(1.25,0,0,-1.25,-278.76601,513.91683)"
       id="g176">
      <g
         id="g178"
         clip-path="url(#clipPath180)">
        <g
           id="g184"
           transform="translate(371.7129,177.083)">
          <path
             d="M 0,0 -0.247,-11.556 9.298,-11.76 9.546,-0.202 0,0 Z"
             style="fill:#ffffff;fill-opacity:1;fill-rule:nonzero;stroke:none"
             id="path186"
             inkscape:connector-curvature="0" />
        </g>
      </g>
    </g>
    <g
       transform="matrix(1.25,0,0,-1.25,-278.76601,513.91683)"
       id="g188">
      <g
         id="g190"
         clip-path="url(#clipPath192)">
        <g
           id="g196"
           transform="translate(385.0415,165.9482)">
          <path
             d="M 0,0 C 0,0 -1.657,1.246 -0.913,3.204 -0.169,5.161 1.032,6.668 1.292,7.019 1.554,7.369 1.551,7.673 1.157,7.893 0.76,8.112 -1.066,5.875 -1.604,4.945 -2.143,4.016 -3.903,0.082 -3.296,-1.659 -2.69,-3.396 -1.434,-3.814 -0.242,-3.614 0.944,-3.413 4.603,-0.987 5.82,0.084 7.041,1.151 7.543,2.016 7.289,2.411 7.037,2.813 5.595,1.846 5.013,1.266 4.432,0.684 1.671,-0.907 0,0"
             style="fill:#ffffff;fill-opacity:1;fill-rule:nonzero;stroke:none"
             id="path198"
             inkscape:connector-curvature="0" />
        </g>
      </g>
    </g>
    <g
       transform="matrix(1.25,0,0,-1.25,-278.76601,513.91683)"
       id="g200">
      <g
         id="g202"
         clip-path="url(#clipPath204)">
        <g
           id="g208"
           transform="translate(386.3101,179.7588)">
          <path
             d="M 0,0 -11.106,-12.235 1.102,-23.322 12.21,-11.088 0,0 Z"
             style="fill:#ffffff;fill-opacity:1;fill-rule:nonzero;stroke:none"
             id="path210"
             inkscape:connector-curvature="0" />
        </g>
      </g>
    </g>
    <g
       transform="matrix(1.25,0,0,-1.25,-278.76601,513.91683)"
       id="g212">
      <g
         id="g214"
         clip-path="url(#clipPath216)">
        <g
           id="g220"
           transform="translate(391.7173,157.1895)">
          <path
             d="M 0,0 C 0,0 -1.251,1.65 0,3.331 1.257,5.007 2.828,6.127 3.175,6.393 3.52,6.659 3.599,6.954 3.277,7.271 2.958,7.594 0.589,5.941 -0.184,5.192 -0.958,4.447 -3.729,1.146 -3.625,-0.695 c 0.111,-1.836 1.204,-2.582 2.402,-2.715 1.198,-0.134 5.38,1.197 6.846,1.89 1.468,0.695 2.185,1.385 2.053,1.839 C 7.542,0.774 5.891,0.238 5.168,-0.158 4.454,-0.559 1.362,-1.331 0,0"
             style="fill:#ffffff;fill-opacity:1;fill-rule:nonzero;stroke:none"
             id="path222"
             inkscape:connector-curvature="0" />
        </g>
      </g>
    </g>
    <g
       transform="matrix(1.25,0,0,-1.25,-278.76601,513.91683)"
       id="g224">
      <g
         id="g226"
         clip-path="url(#clipPath228)">
        <g
           id="g232"
           transform="translate(395.9155,170.1279)">
          <path
             d="m 0,0 -13.087,-8.828 8.766,-13 13.091,8.83 L 0,0 Z"
             style="fill:#ffffff;fill-opacity:1;fill-rule:nonzero;stroke:none"
             id="path234"
             inkscape:connector-curvature="0" />
        </g>
      </g>
    </g>
    <g
       transform="matrix(1.25,0,0,-1.25,-278.76601,513.91683)"
       id="g236">
      <g
         id="g238"
         clip-path="url(#clipPath240)">
        <g
           id="g244"
           transform="translate(355.2729,160.9082)">
          <path
             d="M 0,0 C 0,1.05 0.853,1.903 1.907,1.903 2.957,1.903 3.811,1.05 3.811,0 3.811,-1.054 2.957,-1.906 1.907,-1.906 0.853,-1.906 0,-1.054 0,0"
             style="fill:#ffffff;fill-opacity:1;fill-rule:nonzero;stroke:none"
             id="path246"
             inkscape:connector-curvature="0" />
        </g>
        <g
           id="g248"
           transform="translate(361.8657,171.5117)">
          <path
             d="M 0,0 C 0,1.052 0.851,1.904 1.902,1.904 2.953,1.904 3.805,1.052 3.805,0 3.805,-1.051 2.953,-1.905 1.902,-1.905 0.851,-1.905 0,-1.051 0,0"
             style="fill:#ffffff;fill-opacity:1;fill-rule:nonzero;stroke:none"
             id="path250"
             inkscape:connector-curvature="0" />
        </g>
        <g
           id="g252"
           transform="translate(374.8911,176.3506)">
          <path
             d="M 0,0 C 0,1.052 0.852,1.903 1.903,1.903 2.953,1.903 3.81,1.052 3.81,0 3.81,-1.053 2.953,-1.904 1.903,-1.904 0.852,-1.904 0,-1.053 0,0"
             style="fill:#ffffff;fill-opacity:1;fill-rule:nonzero;stroke:none"
             id="path254"
             inkscape:connector-curvature="0" />
        </g>
        <g
           id="g256"
           transform="translate(387.5537,171.2051)">
          <path
             d="M 0,0 C 0,1.051 0.85,1.902 1.905,1.902 2.955,1.902 3.808,1.051 3.808,0 3.808,-1.053 2.955,-1.906 1.905,-1.906 0.85,-1.906 0,-1.053 0,0"
             style="fill:#ffffff;fill-opacity:1;fill-rule:nonzero;stroke:none"
             id="path258"
             inkscape:connector-curvature="0" />
        </g>
        <g
           id="g260"
           transform="translate(395.0693,161.1133)">
          <path
             d="M 0,0 C 0,1.052 0.853,1.902 1.904,1.902 2.957,1.902 3.811,1.052 3.811,0 3.811,-1.053 2.957,-1.906 1.904,-1.906 0.853,-1.906 0,-1.053 0,0"
             style="fill:#ffffff;fill-opacity:1;fill-rule:nonzero;stroke:none"
             id="path262"
             inkscape:connector-curvature="0" />
        </g>
        <g
           id="g264"
           transform="translate(376.6177,180.5361)">
          <path
             d="m 0,0 c -14.749,0 -26.708,-11.708 -26.708,-26.151 0,-14.441 11.959,-26.148 26.708,-26.148 14.749,0 26.706,11.707 26.706,26.148 C 26.706,-11.708 14.749,0 0,0 m 0,-50.505 0,0 c -13.735,0 -24.869,10.906 -24.869,24.354 0,13.451 11.134,24.353 24.869,24.353 13.734,0 24.868,-10.902 24.868,-24.353 0,-13.448 -11.134,-24.354 -24.868,-24.354"
             style="fill:#ffffff;fill-opacity:1;fill-rule:nonzero;stroke:none"
             id="path266"
             inkscape:connector-curvature="0" />
        </g>
        <g
           id="g268"
           transform="translate(354.4761,153.4189)">
          <path
             d="m 0,0 c 0,0 0.255,-15.981 17.264,-21.282 0,0 3.591,9.059 -2.136,14.444 C 9.401,-1.453 4.789,-1.025 0,0"
             style="fill:#ffffff;fill-opacity:1;fill-rule:nonzero;stroke:none"
             id="path270"
             inkscape:connector-curvature="0" />
        </g>
      </g>
    </g>
    <g
       transform="matrix(1.25,0,0,-1.25,-278.76601,513.91683)"
       id="g272">
      <g
         id="g274"
         clip-path="url(#clipPath276)">
        <g
           id="g280"
           transform="translate(364.9038,163.8437)">
          <path
             d="M 0,0 -21.069,-21.065 0,-42.133 21.068,-21.065 0,0 Z"
             style="fill:#ffffff;fill-opacity:1;fill-rule:nonzero;stroke:none"
             id="path282"
             inkscape:connector-curvature="0" />
        </g>
      </g>
    </g>
    <g
       transform="matrix(1.25,0,0,-1.25,-278.76601,513.91683)"
       id="g284">
      <g
         id="g286"
         clip-path="url(#clipPath288)">
        <g
           id="g292"
           transform="translate(399.0923,153.4189)">
          <path
             d="m 0,0 c 0,0 -0.259,-15.981 -17.264,-21.282 0,0 -3.59,9.059 2.135,14.444 C -9.405,-1.453 -4.788,-1.025 0,0"
             style="fill:#ffffff;fill-opacity:1;fill-rule:nonzero;stroke:none"
             id="path294"
             inkscape:connector-curvature="0" />
        </g>
      </g>
    </g>
    <g
       transform="matrix(1.25,0,0,-1.25,-278.76601,513.91683)"
       id="g296">
      <g
         id="g298"
         clip-path="url(#clipPath300)">
        <g
           id="g304"
           transform="translate(367.6719,141.5127)">
          <path
             d="M 0,0 22.231,-19.729 41.985,2.532 19.748,22.259 0,0 Z"
             style="fill:#ffffff;fill-opacity:1;fill-rule:nonzero;stroke:none"
             id="path306"
             inkscape:connector-curvature="0" />
        </g>
      </g>
    </g>
    <g
       id="g316"
       transform="matrix(1.25,0,0,-1.25,265.26349,351.54132)">
      <path
         d="m 0,0 c -1.635,-0.808 -4.915,-1.663 -9.093,-1.663 -9.695,0 -16.987,6.167 -16.987,17.46 0,10.775 7.292,18.063 17.97,18.063 4.286,0 6.98,-0.915 8.15,-1.538 l -1.06,-3.611 c -1.705,0.808 -4.09,1.426 -6.963,1.426 -8.04,0 -13.404,-5.164 -13.404,-14.199 0,-8.413 4.828,-13.825 13.2,-13.825 2.725,0 5.462,0.571 7.252,1.427 L 0,0 Z"
         style="fill:#ffffff;fill-opacity:1;fill-rule:nonzero;stroke:none"
         id="path318"
         inkscape:connector-curvature="0" />
    </g>
    <g
       id="g320"
       transform="matrix(1.25,0,0,-1.25,297.97599,337.22244)">
      <path
         d="m 0,0 c 0,-9.143 -6.328,-13.118 -12.297,-13.118 -6.698,0 -11.839,4.89 -11.839,12.715 0,8.263 5.405,13.118 12.258,13.118 C -4.78,12.715 0,7.553 0,0 m -19.607,-0.254 0,0 c 0,-5.412 3.115,-9.516 7.505,-9.516 4.293,0 7.525,4.058 7.525,9.614 0,4.186 -2.111,9.488 -7.417,9.488 -5.296,0 -7.613,-4.895 -7.613,-9.586"
         style="fill:#ffffff;fill-opacity:1;fill-rule:nonzero;stroke:none"
         id="path322"
         inkscape:connector-curvature="0" />
    </g>
    <path
       d="m 303.79149,308.32182 5.61,0 0,45.2975 -5.61,0 0,-45.2975 z"
       style="fill:#ffffff;fill-opacity:1;fill-rule:nonzero;stroke:none"
       id="path324"
       inkscape:connector-curvature="0" />
    <g
       id="g326"
       transform="matrix(1.25,0,0,-1.25,345.50762,337.22244)">
      <path
         d="m 0,0 c 0,-9.143 -6.327,-13.118 -12.287,-13.118 -6.696,0 -11.849,4.89 -11.849,12.715 0,8.263 5.413,13.118 12.249,13.118 C -4.802,12.715 0,7.553 0,0 m -19.608,-0.254 0,0 c 0,-5.412 3.117,-9.516 7.516,-9.516 4.285,0 7.488,4.058 7.488,9.614 0,4.186 -2.075,9.488 -7.37,9.488 -5.327,0 -7.634,-4.895 -7.634,-9.586"
         style="fill:#ffffff;fill-opacity:1;fill-rule:nonzero;stroke:none"
         id="path328"
         inkscape:connector-curvature="0" />
    </g>
    <g
       id="g330"
       transform="matrix(1.25,0,0,-1.25,351.33774,331.08357)">
      <path
         d="m 0,0 c 0,2.541 -0.068,4.63 -0.226,6.676 l 3.935,0 0.203,-3.981 0.155,0 c 1.394,2.344 3.671,4.553 7.748,4.553 3.391,0 5.933,-2.046 7.012,-4.956 l 0.116,0 c 0.75,1.362 1.716,2.442 2.738,3.209 1.479,1.128 3.115,1.747 5.459,1.747 3.271,0 8.111,-2.151 8.111,-10.733 l 0,-14.544 -4.391,0 0,13.994 c 0,4.745 -1.732,7.598 -5.365,7.598 -2.529,0 -4.526,-1.884 -5.295,-4.084 -0.204,-0.603 -0.358,-1.431 -0.358,-2.24 l 0,-15.268 -4.404,0 0,14.811 C 15.438,0.71 13.726,3.563 10.3,3.563 7.495,3.563 5.461,1.324 4.75,-0.929 4.487,-1.586 4.38,-2.364 4.38,-3.11 l 0,-14.919 -4.38,0 L 0,0 Z"
         style="fill:#ffffff;fill-opacity:1;fill-rule:nonzero;stroke:none"
         id="path332"
         inkscape:connector-curvature="0" />
    </g>
    <g
       id="g334"
       transform="matrix(1.25,0,0,-1.25,403.275,307.62782)">
      <path
         d="m 0,0 4.439,0 0,-15.513 0.086,0 c 1.587,2.749 4.451,4.552 8.421,4.552 6.116,0 10.478,-5.116 10.429,-12.617 0,-8.83 -5.561,-13.216 -11.099,-13.216 -3.573,0 -6.415,1.378 -8.256,4.638 l -0.157,0 -0.204,-4.085 -3.893,0 C -0.116,-34.556 0,-32.055 0,-29.853 L 0,0 Z m 4.439,-26.325 0,0 c 0,-0.575 0.086,-1.134 0.194,-1.626 0.868,-3.134 3.467,-5.275 6.738,-5.275 4.691,0 7.494,3.838 7.494,9.492 0,4.95 -2.539,9.181 -7.339,9.181 -3.066,0 -5.919,-2.09 -6.843,-5.506 -0.107,-0.517 -0.244,-1.129 -0.244,-1.841 l 0,-4.425 z"
         style="fill:#ffffff;fill-opacity:1;fill-rule:nonzero;stroke:none"
         id="path336"
         inkscape:connector-curvature="0" />
    </g>
    <g
       id="g338"
       transform="matrix(1.25,0,0,-1.25,444.54086,314.05232)">
      <path
         d="m 0,0 c 0.038,-1.54 -1.091,-2.766 -2.882,-2.766 -1.557,0 -2.687,1.226 -2.687,2.766 0,1.582 1.177,2.794 2.804,2.794 C -1.091,2.794 0,1.582 0,0 m -4.995,-31.654 0,0 0,24.705 4.489,0 0,-24.705 -4.489,0 z"
         style="fill:#ffffff;fill-opacity:1;fill-rule:nonzero;stroke:none"
         id="path340"
         inkscape:connector-curvature="0" />
    </g>
    <g
       id="g342"
       transform="matrix(1.25,0,0,-1.25,473.62661,345.52932)">
      <path
         d="m 0,0 c 0,-2.126 0.115,-4.234 0.396,-5.92 l -4.06,0 -0.358,3.112 -0.157,0 c -1.391,-1.946 -4.039,-3.665 -7.553,-3.665 -4.995,0 -7.566,3.509 -7.566,7.089 0,5.971 5.305,9.246 14.858,9.194 l 0,0.514 c 0,2.035 -0.545,5.705 -5.609,5.705 -2.298,0 -4.712,-0.716 -6.434,-1.831 l -1.023,2.95 c 2.035,1.33 4.994,2.212 8.119,2.212 C -1.831,19.36 0,14.198 0,9.25 L 0,0 Z m -4.334,6.685 0,0 c -4.896,0.11 -10.477,-0.76 -10.477,-5.555 0,-2.906 1.95,-4.293 4.246,-4.293 3.232,0 5.267,2.05 5.968,4.142 0.157,0.447 0.263,0.964 0.263,1.431 l 0,4.275 z"
         style="fill:#ffffff;fill-opacity:1;fill-rule:nonzero;stroke:none"
         id="path344"
         inkscape:connector-curvature="0" />
    </g>
    <g
       id="g346"
       transform="matrix(1.25,0,0,-1.25,511.66612,351.54132)">
      <path
         d="m 0,0 c -1.636,-0.808 -4.907,-1.663 -9.075,-1.663 -9.715,0 -17.027,6.167 -17.027,17.46 0,10.775 7.312,18.063 17.994,18.063 4.281,0 6.978,-0.915 8.157,-1.538 l -1.062,-3.611 c -1.675,0.808 -4.09,1.426 -6.97,1.426 -8.061,0 -13.406,-5.164 -13.406,-14.199 0,-8.413 4.827,-13.825 13.212,-13.825 2.695,0 5.489,0.571 7.251,1.427 L 0,0 Z"
         style="fill:#ffffff;fill-opacity:1;fill-rule:nonzero;stroke:none"
         id="path348"
         inkscape:connector-curvature="0" />
    </g>
    <g
       id="g350"
       transform="matrix(1.25,0,0,-1.25,516.93586,332.36657)">
      <path
         d="m 0,0 c 0,2.904 -0.041,5.408 -0.197,7.702 l 3.944,0 0.155,-4.851 0.206,0 c 1.108,3.325 3.815,5.423 6.844,5.423 0.496,0 0.857,-0.068 1.284,-0.166 l 0,-4.228 C 11.759,3.976 11.303,4.029 10.68,4.029 7.524,4.029 5.265,1.634 4.672,-1.734 4.555,-2.352 4.466,-3.067 4.466,-3.827 l 0,-13.176 -4.466,0 L 0,0 Z"
         style="fill:#ffffff;fill-opacity:1;fill-rule:nonzero;stroke:none"
         id="path352"
         inkscape:connector-curvature="0" />
    </g>
    <g
       id="g354"
       transform="matrix(1.25,0,0,-1.25,539.04649,338.52007)">
      <path
         d="m 0,0 c 0.088,-6.061 3.971,-8.571 8.46,-8.571 3.223,0 5.15,0.564 6.853,1.28 l 0.749,-3.218 c -1.568,-0.716 -4.283,-1.571 -8.214,-1.571 -7.605,0 -12.16,5.053 -12.16,12.494 0,7.463 4.4,13.339 11.603,13.339 8.062,0 10.213,-7.117 10.213,-11.659 C 17.504,1.187 17.388,0.473 17.339,0 L 0,0 Z m 13.152,3.218 0,0 C 13.21,6.091 11.975,10.52 6.941,10.52 2.385,10.52 0.398,6.338 0.04,3.218 l 13.112,0 z"
         style="fill:#ffffff;fill-opacity:1;fill-rule:nonzero;stroke:none"
         id="path356"
         inkscape:connector-curvature="0" />
    </g>
    <g
       id="g358"
       transform="matrix(1.25,0,0,-1.25,588.59849,351.79032)">
      <path
         d="m 0,0 c -1.168,-0.608 -3.768,-1.464 -7.096,-1.464 -7.44,0 -12.286,5.101 -12.286,12.659 0,7.604 5.198,13.105 13.258,13.105 2.658,0 4.996,-0.653 6.231,-1.256 L -0.904,19.56 c -1.082,0.612 -2.756,1.177 -5.22,1.177 -5.647,0 -8.724,-4.191 -8.724,-9.337 0,-5.713 3.671,-9.239 8.578,-9.239 2.543,0 4.236,0.667 5.523,1.218 L 0,0 Z"
         style="fill:#ffffff;fill-opacity:1;fill-rule:nonzero;stroke:none"
         id="path360"
         inkscape:connector-curvature="0" />
    </g>
    <g
       id="g362"
       transform="matrix(1.25,0,0,-1.25,596.64174,338.52007)">
      <path
         d="m 0,0 c 0.108,-6.061 3.974,-8.571 8.48,-8.571 3.202,0 5.161,0.564 6.835,1.28 l 0.769,-3.218 c -1.587,-0.716 -4.283,-1.571 -8.227,-1.571 -7.603,0 -12.15,5.053 -12.15,12.494 0,7.463 4.401,13.339 11.605,13.339 8.05,0 10.192,-7.117 10.192,-11.659 C 17.504,1.187 17.408,0.473 17.37,0 L 0,0 Z m 13.162,3.218 0,0 C 13.231,6.091 11.994,10.52 6.941,10.52 2.404,10.52 0.419,6.338 0.06,3.218 l 13.102,0 z"
         style="fill:#ffffff;fill-opacity:1;fill-rule:nonzero;stroke:none"
         id="path364"
         inkscape:connector-curvature="0" />
    </g>
  </g>
</svg>
